<?xml version="1.0" encoding="UTF-8"?>
<!DOCTYPE svg PUBLIC "-//W3C//DTD SVG 1.1//EN" "http://www.w3.org/Graphics/SVG/1.1/DTD/svg11.dtd">
<svg xmlns="http://www.w3.org/2000/svg" version="1.1" width="313px" height="434px" style="shape-rendering:geometricPrecision; text-rendering:geometricPrecision; image-rendering:optimizeQuality; fill-rule:evenodd; clip-rule:evenodd" xmlns:xlink="http://www.w3.org/1999/xlink">
<g><path style="opacity:0.753" fill="#000000" d="M 135.5,83.5 C 141.098,83.3649 145.765,85.3649 149.5,89.5C 150.452,87.9547 150.785,86.288 150.5,84.5C 141.149,83.8154 136.149,78.8154 135.5,69.5C 141.421,68.8774 146.254,70.8774 150,75.5C 150.495,73.5273 150.662,71.5273 150.5,69.5C 140.548,69.5481 135.548,64.5481 135.5,54.5C 141.421,53.8774 146.254,55.8774 150,60.5C 150.494,58.8659 150.66,57.1992 150.5,55.5C 141.386,54.0515 136.386,48.7182 135.5,39.5C 142.161,39.413 147.328,42.0797 151,47.5C 151.497,45.1902 151.663,42.8568 151.5,40.5C 141.683,40.3511 136.35,35.3511 135.5,25.5C 142.265,24.4685 147.432,26.8018 151,32.5C 151.808,30.4213 151.641,28.4213 150.5,26.5C 141.181,25.1758 136.514,19.8425 136.5,10.5C 142.848,9.88441 147.682,12.2177 151,17.5C 151.497,15.1902 151.663,12.8568 151.5,10.5C 152.5,10.5 153.5,10.5 154.5,10.5C 154.965,42.8503 155.798,75.1836 157,107.5C 164.077,104.306 170.91,100.639 177.5,96.5C 170.612,93.3913 167.279,88.058 167.5,80.5C 176.355,80.6911 182.022,85.0244 184.5,93.5C 185.086,93.2907 185.586,92.9574 186,92.5C 186.497,89.854 186.664,87.1873 186.5,84.5C 187.978,84.762 189.311,84.4287 190.5,83.5C 193.826,76.9583 198.993,74.2917 206,75.5C 205.624,85.3752 200.457,90.3752 190.5,90.5C 190.982,94.2339 189.649,97.0673 186.5,99C 176.419,104.456 166.586,110.289 157,116.5C 156.167,131.178 156.334,145.845 157.5,160.5C 173.908,152.214 190.075,143.547 206,134.5C 206.497,132.19 206.663,129.857 206.5,127.5C 196.766,126.093 192.1,120.427 192.5,110.5C 199.594,110.41 204.427,113.744 207,120.5C 207.096,113.473 209.929,107.973 215.5,104C 219.167,102.927 221.167,104.26 221.5,108C 221.064,114.004 218.398,118.671 213.5,122C 212.207,122.49 210.873,122.657 209.5,122.5C 210.108,126.472 210.608,130.472 211,134.5C 213.975,127.022 219.475,123.356 227.5,123.5C 227.839,134.33 222.506,139.83 211.5,140C 196.167,149.333 180.833,158.667 165.5,168C 174.177,169.519 178.51,174.685 178.5,183.5C 169.333,183.666 163.5,179.332 161,170.5C 159.748,172.001 158.748,173.668 158,175.5C 158.074,192.159 158.407,208.826 159,225.5C 165.088,222.206 171.255,219.039 177.5,216C 173.311,208.273 174.311,201.273 180.5,195C 183.064,194.55 184.564,195.716 185,198.5C 185.996,203.229 185.496,207.729 183.5,212C 187.633,210.6 191.633,208.6 195.5,206C 192.367,198.929 193.033,192.262 197.5,186C 200.217,184.967 202.051,185.8 203,188.5C 203.354,193.338 203.52,198.005 203.5,202.5C 211.167,198.5 218.833,194.5 226.5,190.5C 228.98,187.639 229.98,184.306 229.5,180.5C 220.252,180.257 214.586,175.591 212.5,166.5C 213,165.119 214,164.453 215.5,164.5C 220.768,164.883 224.934,167.217 228,171.5C 229.356,170.62 230.856,170.286 232.5,170.5C 232.263,174.273 232.763,177.94 234,181.5C 237.062,174.216 242.562,170.883 250.5,171.5C 250.16,181.857 244.827,186.857 234.5,186.5C 234.876,189.627 234.876,192.627 234.5,195.5C 223.638,201.428 212.971,207.594 202.5,214C 211.222,215.553 215.889,220.72 216.5,229.5C 206.61,230.555 200.61,226.221 198.5,216.5C 194.167,219 189.833,221.5 185.5,224C 193.6,226.59 197.6,232.09 197.5,240.5C 188.606,240.063 182.606,235.729 179.5,227.5C 173.533,230.969 167.7,234.636 162,238.5C 161.333,239.833 160.667,241.167 160,242.5C 159.833,249.167 159.667,255.833 159.5,262.5C 159.301,271.915 159.968,281.248 161.5,290.5C 191.167,275.333 220.833,260.167 250.5,245C 251.833,243.667 253.167,242.333 254.5,241C 244.157,240.16 238.824,234.66 238.5,224.5C 241.252,224.578 243.918,224.745 246.5,225C 241.034,221.703 238.367,216.87 238.5,210.5C 246.169,210.412 251.669,213.745 255,220.5C 255.483,219.552 255.649,218.552 255.5,217.5C 257.143,217.48 258.476,218.147 259.5,219.5C 263.083,213.517 268.417,210.517 275.5,210.5C 275.136,220.699 269.803,226.199 259.5,227C 260.452,231.767 261.285,236.6 262,241.5C 265.448,235.561 270.615,232.894 277.5,233.5C 277.453,243.381 272.453,248.548 262.5,249C 242.998,260.919 223.332,272.585 203.5,284C 212.861,285.528 217.861,291.028 218.5,300.5C 208.159,300.653 202.325,295.653 201,285.5C 189.084,292.541 177.25,299.708 165.5,307C 163.57,309.258 162.07,311.758 161,314.5C 160.037,328.899 160.537,343.232 162.5,357.5C 183.707,346.063 205.04,334.897 226.5,324C 219.975,322.805 215.142,319.305 212,313.5C 211.505,311.527 211.338,309.527 211.5,307.5C 221.702,307.363 227.702,312.363 229.5,322.5C 235.293,319.77 240.96,316.77 246.5,313.5C 237.158,312.163 232.491,306.829 232.5,297.5C 242.741,297.234 248.574,302.234 250,312.5C 257.147,308.7 264.313,304.867 271.5,301C 273.917,299.337 275.75,297.171 277,294.5C 277.698,286.472 277.532,278.472 276.5,270.5C 266.308,269.975 260.642,264.642 259.5,254.5C 268.816,254.139 274.816,258.472 277.5,267.5C 277.391,259.948 280.391,254.114 286.5,250C 288.134,249.506 289.801,249.34 291.5,249.5C 293.103,259.14 289.436,265.64 280.5,269C 282.815,281.393 284.315,293.893 285,306.5C 250.779,327.032 216.279,347.198 181.5,367C 175.388,370.779 169.555,374.945 164,379.5C 162.405,390.093 162.072,400.76 163,411.5C 164.798,413.972 167.132,415.639 170,416.5C 170.49,417.793 170.657,419.127 170.5,420.5C 158.833,420.5 147.167,420.5 135.5,420.5C 135.708,416.856 137.708,414.689 141.5,414C 142.701,413.097 143.535,411.931 144,410.5C 144.667,401.167 144.667,391.833 144,382.5C 143.333,381.167 142.667,379.833 142,378.5C 138.434,375.301 134.6,372.467 130.5,370C 94.4678,348.986 58.4678,327.986 22.5,307C 21.8778,305.431 21.5445,303.764 21.5,302C 23.2164,290.537 24.5498,279.037 25.5,267.5C 26.8333,267.5 28.1667,267.5 29.5,267.5C 28.8223,276.162 28.6556,284.829 29,293.5C 30.0314,296.539 31.8647,299.039 34.5,301C 70.8646,319.515 107.198,338.015 143.5,356.5C 143.833,356 144.167,355.5 144.5,355C 145.641,341.199 145.807,327.366 145,313.5C 144.036,309.532 141.869,306.365 138.5,304C 107.632,285.734 76.6316,267.734 45.5,250C 44.1955,249.196 43.5288,248.029 43.5,246.5C 44.998,236.516 46.3313,226.516 47.5,216.5C 48.8333,216.5 50.1667,216.5 51.5,216.5C 50.5309,223.811 50.3642,231.144 51,238.5C 51.7922,240.587 52.9588,242.421 54.5,244C 84.8421,259.398 115.175,274.898 145.5,290.5C 146.208,276.324 146.875,262.158 147.5,248C 147.204,244.158 146.038,240.658 144,237.5C 141.624,246.289 135.79,250.623 126.5,250.5C 126.478,246.975 126.978,243.642 128,240.5C 124.587,243.014 120.753,244.014 116.5,243.5C 116.322,234.514 120.655,229.347 129.5,228C 123.833,224.833 118.167,221.667 112.5,218.5C 109.954,227.716 103.954,231.716 94.5,230.5C 94.7563,228.063 95.4229,225.729 96.5,223.5C 96.1667,223.167 95.8333,222.833 95.5,222.5C 85.768,228.316 82.6014,225.983 86,215.5C 82.6727,218.154 78.8394,219.154 74.5,218.5C 74.9347,215.404 75.4347,212.404 76,209.5C 72.6727,212.154 68.8394,213.154 64.5,212.5C 64.5248,204.303 68.5248,199.137 76.5,197C 71.1667,195 65.8333,193 60.5,191C 50.873,178.628 53.2063,175.628 67.5,182C 69.0412,183.579 70.2078,185.413 71,187.5C 72.3515,185.406 72.8515,183.073 72.5,180.5C 62.6439,179.646 57.6439,174.312 57.5,164.5C 64.7641,164.708 69.9308,168.042 73,174.5C 74.0086,172.975 74.5086,171.308 74.5,169.5C 77.5235,167.997 80.1902,165.83 82.5,163C 85.6076,161.241 88.941,160.408 92.5,160.5C 93.3255,166.343 91.3255,170.843 86.5,174C 88.8098,174.497 91.1432,174.663 93.5,174.5C 92.8157,177.546 92.3157,180.546 92,183.5C 95.4134,180.986 99.2468,179.986 103.5,180.5C 103.25,183.214 103.083,185.881 103,188.5C 106.548,186.488 110.381,185.488 114.5,185.5C 114.722,188.39 114.055,191.057 112.5,193.5C 112.833,193.833 113.167,194.167 113.5,194.5C 116.757,192.121 120.424,191.121 124.5,191.5C 124.457,194.587 124.29,197.587 124,200.5C 127.292,197.68 131.125,196.347 135.5,196.5C 135.677,200.104 135.177,203.437 134,206.5C 137.592,203.47 141.758,202.136 146.5,202.5C 146.753,211.42 142.42,216.586 133.5,218C 138.242,220.12 142.742,222.62 147,225.5C 147.677,208.83 148.01,192.163 148,175.5C 147.333,174.167 146.667,172.833 146,171.5C 143.138,179.85 137.304,183.516 128.5,182.5C 129.184,179.454 129.684,176.454 130,173.5C 126.623,176.013 122.79,177.013 118.5,176.5C 118.935,173.404 119.435,170.404 120,167.5C 116.587,170.014 112.753,171.014 108.5,170.5C 108.782,167.653 108.782,164.987 108.5,162.5C 105.009,164.094 101.342,164.761 97.5,164.5C 98.0557,160.943 98.8891,157.61 100,154.5C 96.5563,157.883 92.3896,159.216 87.5,158.5C 87.6111,150.768 91.2778,145.602 98.5,143C 95.3072,141.974 93.9738,139.808 94.5,136.5C 83.9982,136.331 78.9982,130.998 79.5,120.5C 86.7641,120.708 91.9308,124.042 95,130.5C 95.2256,127.905 95.7256,125.405 96.5,123C 89.1717,120.671 85.1717,115.671 84.5,108C 84.6878,106.118 85.6878,104.952 87.5,104.5C 95.0466,106.565 99.0466,111.565 99.5,119.5C 99.0793,123.991 98.9127,128.658 99,133.5C 101.325,125.245 106.825,121.245 115.5,121.5C 115.457,124.587 115.29,127.587 115,130.5C 118.377,127.987 122.21,126.987 126.5,127.5C 126.846,130.602 126.179,133.435 124.5,136C 126.279,135.956 127.945,135.289 129.5,134C 132.063,132.921 134.729,132.421 137.5,132.5C 137.522,136.025 137.022,139.358 136,142.5C 139.482,139.117 143.649,137.784 148.5,138.5C 149.553,131.536 149.72,124.536 149,117.5C 145.211,110.946 142.878,111.279 142,118.5C 138.146,123.878 132.979,126.212 126.5,125.5C 126.935,122.404 127.435,119.404 128,116.5C 124.587,119.014 120.753,120.014 116.5,119.5C 116.278,116.61 116.945,113.943 118.5,111.5C 118.167,111.167 117.833,110.833 117.5,110.5C 114.243,112.879 110.576,113.879 106.5,113.5C 106.146,105.015 110.146,99.8485 118.5,98C 115.979,94.7393 112.645,93.0726 108.5,93C 102.076,90.322 99.0756,85.4886 99.5,78.5C 102.448,78.6759 105.114,78.6759 107.5,78.5C 104.962,74.5377 103.962,70.2043 104.5,65.5C 111.791,65.7301 116.291,69.3968 118,76.5C 119.836,68.8311 124.669,64.4977 132.5,63.5C 133.161,68.2845 132.161,72.6178 129.5,76.5C 131.743,77.4742 134.076,77.8076 136.5,77.5C 136.167,79.5 135.833,81.5 135.5,83.5 Z M 118.5,81.5 C 119.873,81.3433 121.207,81.51 122.5,82C 121.54,83.4194 120.707,84.9194 120,86.5C 119.392,84.8455 118.892,83.1789 118.5,81.5 Z M 113.5,83.5 C 114.5,83.5 115.5,83.5 116.5,83.5C 116.634,91.1753 115.634,91.1753 113.5,83.5 Z M 135.5,83.5 C 135.493,92.8311 140.16,98.1644 149.5,99.5C 149.813,102.247 149.48,104.914 148.5,107.5C 139.386,102.442 130.053,97.6084 120.5,93C 127.532,92.8285 132.532,89.6619 135.5,83.5 Z M 121.5,106.5 C 122.006,99.7885 124.339,98.9552 128.5,104C 126.146,104.847 123.812,105.68 121.5,106.5 Z M 131.5,113.5 C 132.03,111.076 132.864,108.743 134,106.5C 135.833,107.667 137.667,108.833 139.5,110C 136.435,110.368 133.768,111.535 131.5,113.5 Z M 111.5,133.5 C 110.781,135.764 110.448,138.097 110.5,140.5C 107.86,140.046 105.527,138.879 103.5,137C 106.565,136.632 109.232,135.465 111.5,133.5 Z M 122.5,139.5 C 121.97,141.924 121.136,144.257 120,146.5C 118.082,145.458 116.249,144.292 114.5,143C 117.31,142.094 119.976,140.927 122.5,139.5 Z M 147.5,141.5 C 148.653,147.653 148.82,153.986 148,160.5C 143.853,158.367 139.686,156.201 135.5,154C 142.571,152.658 146.571,148.491 147.5,141.5 Z M 133.5,144.5 C 132.783,146.937 131.783,149.27 130.5,151.5C 128.833,150.667 127.167,149.833 125.5,149C 128.356,147.741 131.023,146.241 133.5,144.5 Z M 102.5,152.5 C 102.701,146.421 105.035,145.255 109.5,149C 107.14,150.18 104.807,151.347 102.5,152.5 Z M 112.5,158.5 C 113.491,156.518 114.491,154.518 115.5,152.5C 116.7,153.531 118.034,154.365 119.5,155C 117.114,156.193 114.78,157.36 112.5,158.5 Z M 123.5,164.5 C 123.516,158.733 125.516,157.567 129.5,161C 127.308,161.926 125.308,163.093 123.5,164.5 Z M 133.5,170.5 C 133.931,165.119 135.931,163.952 139.5,167C 137.636,168.431 135.636,169.597 133.5,170.5 Z M 77.5,176.5 C 79.1992,176.34 80.8659,176.506 82.5,177C 80.0833,178.663 78.25,180.829 77,183.5C 77.2068,181.249 77.3735,178.915 77.5,176.5 Z M 88.5,186.5 C 87.9695,188.924 87.1362,191.257 86,193.5C 83.913,192.206 81.7463,191.039 79.5,190C 82.9635,189.883 85.9635,188.716 88.5,186.5 Z M 96.5,193.5 C 97.3764,193.369 98.0431,193.702 98.5,194.5C 97.7542,195.736 97.4208,197.07 97.5,198.5C 95.2166,198.392 93.2166,197.559 91.5,196C 93.4913,195.626 95.158,194.793 96.5,193.5 Z M 109.5,198.5 C 109.143,200.589 108.477,202.589 107.5,204.5C 105.833,203.667 104.167,202.833 102.5,202C 104.784,200.738 107.118,199.572 109.5,198.5 Z M 79.5,206.5 C 79.7015,200.421 82.0348,199.255 86.5,203C 84.1401,204.18 81.8068,205.347 79.5,206.5 Z M 120.5,203.5 C 119.94,205.801 119.44,208.134 119,210.5C 116.913,209.206 114.746,208.039 112.5,207C 115.488,206.498 118.155,205.331 120.5,203.5 Z M 89.5,212.5 C 90.0252,206.732 92.3586,205.565 96.5,209C 94.1136,210.193 91.7802,211.36 89.5,212.5 Z M 132.5,208.5 C 131.129,210.459 130.129,212.625 129.5,215C 127.721,214.956 126.055,214.289 124.5,213C 127.309,211.677 129.975,210.177 132.5,208.5 Z M 99.5,218.5 C 100.491,216.518 101.491,214.518 102.5,212.5C 103.7,213.531 105.034,214.365 106.5,215C 104.114,216.193 101.78,217.36 99.5,218.5 Z M 247.5,226.5 C 249.919,226.195 252.586,226.195 255.5,226.5C 255.665,229.518 255.498,232.518 255,235.5C 253.898,231.276 251.398,228.276 247.5,226.5 Z M 130.5,238.5 C 131.745,235.991 132.745,233.325 133.5,230.5C 135.336,231.919 137.336,233.086 139.5,234C 136.275,235.056 133.275,236.556 130.5,238.5 Z"/></g>
<g><path style="opacity:0.682" fill="#000000" d="M 196.5,56.5 C 197.5,56.5 198.5,56.5 199.5,56.5C 202.063,65.9373 199.063,72.9373 190.5,77.5C 189.914,77.2907 189.414,76.9574 189,76.5C 189.207,78.7513 189.373,81.0846 189.5,83.5C 178.349,82.3649 173.682,76.3649 175.5,65.5C 181.612,66.4497 185.779,69.783 188,75.5C 186.561,67.0578 189.394,60.7245 196.5,56.5 Z"/></g>
<g><path style="opacity:0.686" fill="#000000" d="M 65.5,149.5 C 72.0263,150.19 75.8597,153.857 77,160.5C 77.5785,169.375 74.5785,170.709 68,164.5C 65.066,159.784 64.2326,154.784 65.5,149.5 Z"/></g>
<g><path style="opacity:0.673" fill="#000000" d="M 104.5,236.5 C 106.833,236.5 109.167,236.5 111.5,236.5C 111.407,246.094 106.574,251.428 97,252.5C 95.5,252.333 94.6667,251.5 94.5,250C 95.5608,243.671 98.8942,239.171 104.5,236.5 Z"/></g>
<g><path style="opacity:0.686" fill="#000000" d="M 259.5,277.5 C 270.372,277.374 276.039,282.707 276.5,293.5C 265.672,293.672 260.005,288.339 259.5,277.5 Z"/></g>
<g><path style="opacity:0.698" fill="#000000" d="M 268.5,317.5 C 279.332,318.437 283.999,324.437 282.5,335.5C 272.216,333.882 267.55,327.882 268.5,317.5 Z"/></g>
<g><path style="opacity:0.691" fill="#000000" d="M 173.5,326.5 C 183.9,326.899 189.233,332.233 189.5,342.5C 179.1,342.101 173.767,336.767 173.5,326.5 Z"/></g>
<g><path style="opacity:0.701" fill="#000000" d="M 248.5,331.5 C 259.354,331.355 265.021,336.688 265.5,347.5C 254.298,347.963 248.631,342.63 248.5,331.5 Z"/></g>
<g><path style="opacity:0.681" fill="#000000" d="M 226.5,343.5 C 228.611,344.77 229.611,346.77 229.5,349.5C 229.382,357.772 225.382,362.272 217.5,363C 215.611,354.143 218.611,347.643 226.5,343.5 Z"/></g>
</svg>
